<svg xmlns="http://www.w3.org/2000/svg" style="display:none">
  <symbol id="support" viewBox="0 0 24 24"><path d="M4 13v-1a8 8 0 0 1 16 0v1"/><path d="M4 13h2v6H4a2 2 0 0 1-2-2v-2a2 2 0 0 1 2-2Z"/><path d="M20 13h-2v6h2a2 2 0 0 0 2-2v-2a2 2 0 0 0-2-2Z"/><path d="M18 19c0 1.1-.9 2-2 2h-3"/></symbol>
  <symbol id="dashboard" viewBox="0 0 24 24"><rect x="3" y="3" width="7" height="7"/><rect x="14" y="3" width="7" height="7"/><rect x="3" y="14" width="7" height="7"/><rect x="14" y="14" width="7" height="7"/></symbol>
  <symbol id="ticket" viewBox="0 0 24 24"><path d="M3 6h18v4a2 2 0 0 0 0 4v4H3v-4a2 2 0 0 0 0-4V6Z"/><path d="M13 6v12"/></symbol>
  <symbol id="plus" viewBox="0 0 24 24"><circle cx="12" cy="12" r="9"/><path d="M12 8v8M8 12h8"/></symbol>
  <symbol id="user" viewBox="0 0 24 24"><circle cx="12" cy="8" r="3"/><path d="M5 21v-2a7 7 0 0 1 14 0v2Z"/></symbol>
  <symbol id="logout" viewBox="0 0 24 24"><path d="M10 17l5-5-5-5M15 12H3"/><path d="M13 3h6a2 2 0 0 1 2 2v14a2 2 0 0 1-2 2h-6"/></symbol>
  <symbol id="menu" viewBox="0 0 24 24"><path d="M4 6h16M4 12h16M4 18h16"/></symbol>
  <symbol id="bell" viewBox="0 0 24 24"><path d="M18 8a6 6 0 0 0-12 0c0 7-3 7-3 9h18c0-2-3-2-3-9"/><path d="M10 21h4"/></symbol>
  <symbol id="help" viewBox="0 0 24 24"><circle cx="12" cy="12" r="9"/><path d="M9.5 9a2.5 2.5 0 1 1 4.3 1.7c-.8.8-1.8 1.2-1.8 2.8M12 17h.01"/></symbol>
  <symbol id="search" viewBox="0 0 24 24"><circle cx="11" cy="11" r="7"/><path d="m20 20-4-4"/></symbol>
  <symbol id="inbox" viewBox="0 0 24 24"><path d="M4 4h16v16H4Z"/><path d="M4 14h4l2 3h4l2-3h4"/></symbol>
  <symbol id="alert" viewBox="0 0 24 24"><circle cx="12" cy="12" r="9"/><path d="M12 7v6M12 17h.01"/></symbol>
  <symbol id="clock" viewBox="0 0 24 24"><circle cx="12" cy="12" r="9"/><path d="M12 7v5l3 2"/></symbol>
  <symbol id="check" viewBox="0 0 24 24"><circle cx="12" cy="12" r="9"/><path d="m8 12 3 3 5-6"/></symbol>
  <symbol id="upload" viewBox="0 0 24 24"><path d="M12 16V4M7 9l5-5 5 5"/><path d="M5 20h14"/></symbol>
  <symbol id="send" viewBox="0 0 24 24"><path d="m3 3 18 9-18 9 4-9-4-9Z"/><path d="M7 12h14"/></symbol>
  <symbol id="arrow" viewBox="0 0 24 24"><path d="m9 18 6-6-6-6"/></symbol>
  <symbol id="refresh" viewBox="0 0 24 24"><path d="M20 11a8 8 0 1 0-2.34 5.66"/><path d="M20 4v7h-7"/></symbol>
</svg>
